<svg width="26" height="20" viewBox="0 0 26 20" fill="none" xmlns="http://www.w3.org/2000/svg">
<path d="M6.22976 3.93084L5.44749 0.676514H1.42232C1.0451 0.676514 0.683323 0.790801 0.416587 0.994236C0.14985 1.19767 0 1.47359 0 1.76129C0 2.04899 0.14985 2.32491 0.416587 2.52834C0.683323 2.73178 1.0451 2.84606 1.42232 2.84606H3.08643L5.93107 14.7786H22.4442L26 3.93084H6.22976ZM20.2254 12.609H8.29213L6.74179 6.10039H22.3873L20.2254 12.609Z" fill="#0A3641"/>
<path d="M9.24508 19.1177C10.4234 19.1177 11.3786 18.3892 11.3786 17.4905C11.3786 16.5919 10.4234 15.8634 9.24508 15.8634C8.06679 15.8634 7.1116 16.5919 7.1116 17.4905C7.1116 18.3892 8.06679 19.1177 9.24508 19.1177Z" fill="#0A3641"/>
<path d="M19.2013 19.1177C20.3796 19.1177 21.3348 18.3892 21.3348 17.4905C21.3348 16.5919 20.3796 15.8634 19.2013 15.8634C18.023 15.8634 17.0678 16.5919 17.0678 17.4905C17.0678 18.3892 18.023 19.1177 19.2013 19.1177Z" fill="#0A3641"/>
</svg>
